Coordinates
version=1
nRows=26
nColumns=24
inDegrees=yes

Units are S.I. units (second, meters, Newtons, ...)
Angles are in degrees.

endheader
time	pelvis_tilt	pelvis_list	pelvis_rotation	pelvis_tx	pelvis_ty	pelvis_tz	hip_flexion_r	hip_adduction_r	hip_rotation_r	knee_angle_r	ankle_angle_r	subtalar_angle_r	mtp_angle_r	hip_flexion_l	hip_adduction_l	hip_rotation_l	knee_angle_l	ankle_angle_l	subtalar_angle_l	mtp_angle_l	lumbar_extension	lumbar_bending	lumbar_rotation
      1.39566667	     -2.37701423	     -1.55133055	    -13.12489692	      0.95917565	      0.97722788	      0.35358962	    -18.73190200	      1.62646811	     10.75155695	     -6.58236437	     11.73214574	     -7.62219186	      9.01408219	     27.42162467	     -6.16562222	    -11.77820876	      3.01086934	      5.28598292	    -11.74661254	      8.88561193	      0.16918394	      2.02104632	     11.09533715
      1.39983333	     -2.35660105	     -1.47774896	    -13.25628365	      0.96535189	      0.97672706	      0.35337228	    -18.88570472	      1.43008905	     10.73185902	     -6.97340600	     11.56481583	     -7.57162450	      9.09279230	     27.43030295	     -6.14745393	    -11.73905795	      2.50569837	      5.47093237	    -11.91851980	      8.86602238	      0.19099607	      1.91009976	     11.18516487
      1.40400000	     -2.36316567	     -1.38204905	    -13.40622848	      0.97157564	      0.97621130	      0.35313935	    -18.96373093	      1.20724130	     10.63594104	     -7.43982006	     11.38914385	     -7.42742455	     13.77826203	     27.47037323	     -6.11740014	    -11.73540157	      1.95074551	      5.63106860	    -12.01898139	      7.88949157	      0.23496945	      1.78647091	     11.39894531
      1.40816667	     -2.33300122	     -1.27502650	    -13.52853624	      0.97788103	      0.97577233	      0.35289174	    -19.10442317	      0.97588617	     10.59276607	     -7.86504452	     11.17615510	     -7.36424371	     13.79559413	     27.45959045	     -6.04932486	    -11.69157798	      1.39683336	      5.73246792	    -12.19719285	      7.89470128	      0.25842149	      1.62833454	     11.51058545
      1.41233333	     -2.30320893	     -1.16402510	    -13.65155980	      0.98419908	      0.97536919	      0.35261387	    -19.22478078	      0.74110107	     10.55935198	     -8.32442133	     10.94929479	     -7.34926325	     13.80686342	     27.45224945	     -5.97329180	    -11.68146171	      0.80787341	      5.75619597	    -12.36834903	      7.89761253	      0.27253080	      1.48458296	     11.56432636
      1.41650000	     -2.29834927	     -1.01728610	    -13.77002138	      0.99062428	      0.97493872	      0.35232846	    -19.28452841	      0.47325931	     10.41328742	     -8.84066245	     10.75205293	     -7.12758617	     13.88866702	     27.46437504	     -5.85917050	    -11.64112825	      0.21139075	      5.80521737	    -12.54173863	      7.91616901	      0.36303081	      1.28170387	     11.80386686
      1.42066667	     -2.26154589	     -0.88304732	    -13.88912404	      0.99705195	      0.97460427	      0.35201548	    -19.37838698	      0.21458009	     10.35618920	     -9.35629755	     10.49169614	     -7.11706412	     13.91707147	     27.44368939	     -5.74650867	    -11.66848794	     -0.40163235	      5.72756094	    -12.70395825	      7.92193478	      0.38664652	      1.12688341	     11.85057992
      1.42483333	     -2.25853225	     -0.69544893	    -13.99061889	      1.00357876	      0.97422627	      0.35167127	    -19.39591399	     -0.09059379	     10.16261769	     -9.93237340	     10.25208438	     -6.87146943	     14.06465167	     27.45407006	     -5.57321061	    -11.64955018	     -1.00361366	      5.61487328	    -12.87820097	      7.95935613	      0.49971510	      0.86997652	     12.05592114
      1.42900000	     -2.23516817	     -0.51712513	    -14.10159968	      1.01010170	      0.97392176	      0.35129384	    -19.40130650	     -0.39413576	      9.96717731	    -10.57359446	     10.05314469	     -6.62244884	     14.38402471	     27.43368052	     -5.40151638	    -11.68489263	     -1.59314237	      5.38657793	    -13.10403217	      8.03903795	      0.57341926	      0.66823323	     12.22724998
      1.43316667	     -2.22197122	     -0.31729663	    -14.19917935	      1.01666224	      0.97362329	      0.35088427	    -19.36862218	     -0.71221703	      9.74803003	    -11.25694424	      9.77744246	     -6.40098024	     15.15606471	     27.41815424	     -5.19624211	    -11.65829144	     -2.16466703	      5.13172224	    -13.37351517	      8.25201128	      0.66651463	      0.42845169	     12.34329475
      1.43733333	     -2.18034451	     -0.11726129	    -14.25781290	      1.02330685	      0.97340376	      0.35046698	    -19.41791455	     -1.02123780	      9.60666567	    -11.82433417	      9.28266249	     -6.48395573	     19.81416822	     27.41052685	     -4.98097681	    -11.74449042	     -2.81167128	      4.87905053	    -13.42276371	      9.52991193	      0.73791732	      0.16772416	     12.36651132
      1.44150000	     -2.14832991	      0.11272977	    -14.30640940	      1.02999069	      0.97320005	      0.35002370	    -19.41566367	     -1.35163774	      9.43220926	    -12.47359936	      8.86635059	     -6.45773741	     19.83270881	     27.39404258	     -4.72340091	    -11.78598562	     -3.40880385	      4.54392601	    -13.54303264	      9.53633339	      0.83423020	     -0.12856182	     12.41972343
      1.44566667	     -2.12966407	      0.35235531	    -14.36471482	      1.03664057	      0.97300496	      0.34952500	    -19.32423374	     -1.69828671	      9.16287649	    -13.25823850	      8.54100721	     -6.20179533	     19.95395053	     27.38870066	     -4.45392887	    -11.81122547	     -3.98937127	      4.13824083	    -13.77410636	      9.57797645	      0.94053832	     -0.40881138	     12.53415114
      1.44983333	     -2.09391403	      0.60527598	    -14.37307791	      1.04339390	      0.97287655	      0.34900893	    -19.28731616	     -2.03937504	      8.93974801	    -13.96728315	      8.02985745	     -6.17557748	     20.01965391	     27.37629142	     -4.15123830	    -11.84998396	     -4.58947685	      3.74099973	    -13.85564467	      9.59771324	      1.04600295	     -0.73344350	     12.55583806
      1.45400000	     -2.07275149	      0.87301291	    -14.40327095	      1.05008127	      0.97274544	      0.34843668	    -19.13912215	     -2.40848387	      8.61914150	    -14.84887616	      7.66176084	     -5.88345136	     20.26938756	     27.37805171	     -3.83686753	    -11.87575053	     -5.16881332	      3.27309218	    -14.07949647	      9.67025590	      1.15976972	     -1.04305615	     12.62221271
      1.45816667	     -2.03842992	      1.14624860	    -14.37158041	      1.05682702	      0.97266369	      0.34781584	    -19.03066256	     -2.76015140	      8.31601842	    -15.67466848	      7.09822915	     -5.88663656	     24.24428106	     27.37910776	     -3.48770730	    -11.84207196	     -5.75905743	      2.79428908	    -14.30331408	     10.85590279	      1.26996122	     -1.38614320	     12.62557520
      1.46233333	     -1.99293130	      1.42414730	    -14.36128102	      1.06358014	      0.97265182	      0.34720161	    -18.89047294	     -3.13056623	      8.01064681	    -16.57367290	      6.55152366	     -5.67683863	     24.30638337	     27.37958361	     -3.15135147	    -11.93683842	     -6.39304271	      2.37972075	    -14.31554715	     10.87349326	      1.36474235	     -1.72672297	     12.64427140
      1.46650000	     -1.95503469	      1.71053225	    -14.32500884	      1.07033144	      0.97265409	      0.34654258	    -18.71353924	     -3.49765818	      7.68950712	    -17.52584647	      5.97667939	     -5.52497093	     24.40748931	     27.39101711	     -2.79349967	    -11.97295085	     -7.01650599	      1.96620428	    -14.35022766	     10.89951939	      1.47267295	     -2.07391095	     12.64153718
      1.47066667	     -1.89909045	      2.00005352	    -14.26160018	      1.07710652	      0.97272479	      0.34586497	    -18.55851982	     -3.85961059	      7.39568641	    -18.46377547	      5.29913322	     -5.46028443	     24.47626754	     27.39760430	     -2.42084427	    -12.00765181	     -7.67386096	      1.58799353	    -14.37665096	     10.91561346	      1.55833843	     -2.45078600	     12.64141970
      1.47483333	     -1.82142453	      2.31339033	    -14.21548735	      1.08380841	      0.97284486	      0.34511708	    -18.33246247	     -4.27466172	      7.00795621	    -19.55865319	      4.71354363	     -5.20752558	     26.79814523	     27.34117354	     -1.99729895	    -11.92091674	     -8.21711407	      1.06774489	    -14.76239731	     11.42952753	      1.61812475	     -2.83174063	     12.66461837
      1.47900000	     -1.80526130	      2.60202545	    -14.11796479	      1.09054492	      0.97290910	      0.34434634	    -18.05003476	     -4.62407150	      6.65475553	    -20.65494486	      4.04053849	     -5.04933512	     26.89528806	     27.41979615	     -1.63276684	    -11.99591523	     -8.94018279	      0.81310462	    -14.56152030	     11.45100319	      1.74743215	     -3.17182533	     12.58751457
      1.48316667	     -1.71413957	      2.87140878	    -14.01290986	      1.09723064	      0.97312927	      0.34356849	    -17.84226069	     -4.96378396	      6.34498034	    -21.74689996	      3.26638154	     -5.02623306	     26.93934405	     27.41366341	     -1.26029392	    -12.03453152	     -9.66145414	      0.55432529	    -14.55114032	     11.45850324	      1.78691851	     -3.52293066	     12.57279966
      1.48733333	     -1.69556507	      3.18580278	    -13.90984980	      1.10391854	      0.97324696	      0.34274207	    -17.47768120	     -5.34917617	      5.98295652	    -22.97694512	      2.61869964	     -4.73264461	     27.12792294	     27.47725973	     -0.85700235	    -12.05996853	    -10.34737745	      0.28193137	    -14.49769581	     11.48939526	      1.89624311	     -3.90295818	     12.51215911
      1.49150000	     -1.60910479	      3.47220552	    -13.78349102	      1.11059281	      0.97353206	      0.34191674	    -17.20433277	     -5.70193312	      5.68078969	    -24.16307206	      1.78835609	     -4.68241180	     27.21518802	     27.45050038	     -0.45048541	    -12.04060189	    -11.01511010	      0.06969679	    -14.46633273	     11.50221156	      1.92733797	     -4.28026489	     12.48140633
      1.49566667	     -1.55313672	      3.76279098	    -13.66291309	      1.11723201	      0.97376938	      0.34103838	    -16.83231103	     -6.06924220	      5.34228321	    -25.46882291	      1.06084316	     -4.49853347	     27.39240152	     27.45629773	     -0.04843228	    -12.03740302	    -11.67582188	     -0.13184919	    -14.42897469	     11.52586421	      1.99910265	     -4.61456521	     12.40947914
      1.49983333	     -1.45694293	      4.03096549	    -13.52907631	      1.12382832	      0.97411777	      0.34017750	    -16.51342738	     -6.40438698	      5.07861990	    -26.74120325	      0.21062453	     -4.45732043	     27.48142892	     27.42350426	      0.34392906	    -12.02073579	    -12.37071918	     -0.25996301	    -14.41913156	     11.53743528	      1.99784414	     -4.97934655	     12.38016106
